<svg width="40" height="40" viewBox="0 0 16 16" fill="none" xmlns="http://www.w3.org/2000/svg">
<path d="M4.79003 4.78975C5.0097 4.57008 5.36585 4.57008 5.58552 4.78975L8.00014 7.20437L10.4148 4.78975C10.6344 4.57008 10.9906 4.57008 11.2102 4.78975C11.4299 5.00942 11.4299 5.36558 11.2102 5.58525L8.79563 7.99986L11.2104 10.4147C11.4301 10.6343 11.4301 10.9905 11.2104 11.2102C10.9908 11.4298 10.6346 11.4298 10.4149 11.2102L8.00014 8.79536L5.58534 11.2102C5.36567 11.4298 5.00952 11.4298 4.78985 11.2102C4.57018 10.9905 4.57018 10.6343 4.78985 10.4147L7.20464 7.99986L4.79003 5.58525C4.57036 5.36558 4.57036 5.00942 4.79003 4.78975Z" fill="#000000"/>
<path fill-rule="evenodd" clip-rule="evenodd" d="M8 15.875C12.3492 15.875 15.875 12.3492 15.875 8C15.875 3.65076 12.3492 0.125 8 0.125C3.65076 0.125 0.125 3.65076 0.125 8C0.125 12.3492 3.65076 15.875 8 15.875ZM8 14.75C11.7279 14.75 14.75 11.7279 14.75 8C14.75 4.27208 11.7279 1.25 8 1.25C4.27208 1.25 1.25 4.27208 1.25 8C1.25 11.7279 4.27208 14.75 8 14.75Z" fill="white"/>
</svg>
