<svg xmlns="http://www.w3.org/2000/svg" xmlns:xlink="http://www.w3.org/1999/xlink" version="1.1" width="79" height="87" style="shape-rendering:geometricPrecision; text-rendering:geometricPrecision; image-rendering:optimizeQuality; fill-rule:evenodd; clip-rule:evenodd"><rect id="backgroundrect" width="100%" height="100%" x="0" y="0" fill="none" stroke="none"/>

































<g class="currentLayer" style=""><title>Layer 1</title><g id="svg_1" class="" opacity="0"><path style="" fill="#191a1e" d="M -0.5,-0.5 C 25.8333,-0.5 52.1667,-0.5 78.5,-0.5C 78.5,7.16667 78.5,14.8333 78.5,22.5C 76.1249,20.9339 74.9582,18.6006 75,15.5C 74.5831,14.244 73.7498,13.5774 72.5,13.5C 73.1962,6.00265 70.3628,4.00265 64,7.5C 63.5065,9.13414 63.3398,10.8008 63.5,12.5C 60.3354,11.9635 57.6688,12.7969 55.5,15C 55.8333,15.3333 56.1667,15.6667 56.5,16C 54.1009,16.711 51.7676,16.5443 49.5,15.5C 48.5233,17.4109 47.8567,19.4109 47.5,21.5C 47.5,23.5 47.5,25.5 47.5,27.5C 44.6946,28.3195 41.6946,28.8195 38.5,29C 37.7476,29.6708 37.4142,30.5041 37.5,31.5C 36.0735,33.1484 35.2401,35.1484 35,37.5C 33.6439,38.3802 32.1439,38.7135 30.5,38.5C 29.8333,38.5 29.5,38.1667 29.5,37.5C 29.1667,35.5 28.8333,33.5 28.5,31.5C 28.627,28.1842 29.627,25.1842 31.5,22.5C 35.1264,21.878 38.793,21.7114 42.5,22C 43.8333,21.3333 43.8333,20.6667 42.5,20C 38.8672,20.0484 35.3672,19.8817 32,19.5C 30.8333,19.8333 29.6667,20.1667 28.5,20.5C 29.9989,21.9038 29.6656,22.5704 27.5,22.5C 22.7585,22.3103 18.0918,21.977 13.5,21.5C 13.5,20.1667 13.5,18.8333 13.5,17.5C 10.7952,17.3802 10.1285,18.3802 11.5,20.5C 10.675,21.3857 9.67504,21.719 8.5,21.5C 7.90884,17.3703 5.90884,16.2036 2.5,18C 5.61152,18.4538 7.27819,20.2871 7.5,23.5C 6.19448,25.9305 5.19448,25.5972 4.5,22.5C 3.15017,21.0499 1.4835,20.3832 -0.5,20.5C -0.5,13.5 -0.5,6.5 -0.5,-0.5 Z" id="svg_2" opacity="0"/></g><g id="svg_5"><path style="opacity:1" fill="#7e064c" d="M 66.5,14.5 C 63.0055,9.28869 64.3389,7.12202 70.5,8C 72.3097,12.0331 70.9764,14.1997 66.5,14.5 Z" id="svg_6"/></g><g id="svg_7"><path style="opacity:1" fill="#970b4a" d="M 59.5,15.5 C 60.5676,14.5655 61.901,14.2322 63.5,14.5C 63.5,14.8333 63.5,15.1667 63.5,15.5C 62.1544,19.0356 61.1544,22.7023 60.5,26.5C 59.413,30.5727 56.7464,32.2394 52.5,31.5C 51.5,30.8333 50.5,30.1667 49.5,29.5C 52.1873,29.6641 54.854,29.4974 57.5,29C 58.056,28.6174 58.3893,28.1174 58.5,27.5C 58.9588,24.5104 59.9588,21.6771 61.5,19C 60.9152,17.6976 60.2485,16.531 59.5,15.5 Z" id="svg_8"/></g><g id="svg_9"><path style="opacity:1" fill="#ba0355" d="M 59.5,15.5 C 60.2485,16.531 60.9152,17.6976 61.5,19C 59.9588,21.6771 58.9588,24.5104 58.5,27.5C 58.7746,22.7797 57.9412,22.4463 56,26.5C 53.9592,25.5769 51.7925,25.2436 49.5,25.5C 49.5,26.5 49.5,27.5 49.5,28.5C 48.8333,28.1667 48.1667,27.8333 47.5,27.5C 47.5,25.5 47.5,23.5 47.5,21.5C 50.4908,19.5826 53.8242,18.5826 57.5,18.5C 57.2852,16.8212 57.9519,15.8212 59.5,15.5 Z" id="svg_10"/></g><g id="svg_11"><path style="opacity:1" fill="#561232" d="M 63.5,15.5 C 66.3133,18.2711 65.8133,20.6044 62,22.5C 61.79,24.0581 61.29,25.3915 60.5,26.5C 61.1544,22.7023 62.1544,19.0356 63.5,15.5 Z" id="svg_12"/></g><g id="svg_13" class="" opacity="0"><path style="" fill="#1f1e22" d="M 66.5,14.5 C 68.6381,15.8081 70.6381,15.4748 72.5,13.5C 73.7498,13.5774 74.5831,14.244 75,15.5C 74.9582,18.6006 76.1249,20.9339 78.5,22.5C 78.5,43.8333 78.5,65.1667 78.5,86.5C 52.1667,86.5 25.8333,86.5 -0.5,86.5C -0.5,64.5 -0.5,42.5 -0.5,20.5C 1.4835,20.3832 3.15017,21.0499 4.5,22.5C 5.19448,25.5972 6.19448,25.9305 7.5,23.5C 7.27819,20.2871 5.61152,18.4538 2.5,18C 5.90884,16.2036 7.90884,17.3703 8.5,21.5C 9.67504,21.719 10.675,21.3857 11.5,20.5C 10.1285,18.3802 10.7952,17.3802 13.5,17.5C 13.5,18.8333 13.5,20.1667 13.5,21.5C 18.0918,21.977 22.7585,22.3103 27.5,22.5C 29.6656,22.5704 29.9989,21.9038 28.5,20.5C 29.6667,20.1667 30.8333,19.8333 32,19.5C 35.3672,19.8817 38.8672,20.0484 42.5,20C 43.8333,20.6667 43.8333,21.3333 42.5,22C 38.793,21.7114 35.1264,21.878 31.5,22.5C 29.627,25.1842 28.627,28.1842 28.5,31.5C 28.1667,31.5 27.8333,31.5 27.5,31.5C 26.6618,31.1583 26.3284,30.4916 26.5,29.5C 23.8291,27.8819 20.8291,27.2153 17.5,27.5C 17.8432,25.5168 17.1765,24.1834 15.5,23.5C 13.3926,22.5318 11.0593,22.1984 8.5,22.5C 8.20528,24.7354 8.53862,26.7354 9.5,28.5C 9.5,28.8333 9.5,29.1667 9.5,29.5C 11.5,30.1667 13.5,30.8333 15.5,31.5C 15.5,33.8333 15.5,36.1667 15.5,38.5C 17.073,41.8931 19.7396,43.2264 23.5,42.5C 23.8333,43.1667 24.1667,43.8333 24.5,44.5C 23.8333,48.5 23.1667,48.5 22.5,44.5C 20.5,44.5 18.5,44.5 16.5,44.5C 16.5,45.8333 16.5,47.1667 16.5,48.5C 18.1992,48.3398 19.8659,48.5065 21.5,49C 20.5842,49.2784 19.9175,49.7784 19.5,50.5C 18.5084,50.3284 17.8417,50.6618 17.5,51.5C 15.7202,52.9899 15.0535,54.9899 15.5,57.5C 15.5,58.8333 15.5,60.1667 15.5,61.5C 12.9179,61.0254 10.9179,61.6921 9.5,63.5C 8.86137,64.0968 8.52804,64.9302 8.5,66C 8.38655,67.6991 9.05322,68.8658 10.5,69.5C 12.2646,70.4614 14.2646,70.7947 16.5,70.5C 16.8782,68.079 17.5448,65.7457 18.5,63.5C 21.0821,63.9746 23.0821,63.3079 24.5,61.5C 25.4916,61.6716 26.1583,61.3382 26.5,60.5C 26.8333,60.5 27.1667,60.5 27.5,60.5C 28.1646,58.6309 28.8313,56.6309 29.5,54.5C 31.3361,53.9724 33.0028,53.3058 34.5,52.5C 36.2371,55.008 37.0704,58.008 37,61.5C 37.6708,62.2524 38.5041,62.5858 39.5,62.5C 41.9479,63.4731 44.6146,63.8064 47.5,63.5C 47.5,64.8333 47.5,66.1667 47.5,67.5C 49.1667,67.5 50.8333,67.5 52.5,67.5C 53.3382,67.8417 53.6716,68.5084 53.5,69.5C 53.1201,71.698 53.7868,73.3646 55.5,74.5C 60.8333,76.5 62.5,74.8333 60.5,69.5C 60.1667,68.8333 59.8333,68.1667 59.5,67.5C 58.0813,66.5489 56.4147,66.2155 54.5,66.5C 54.7678,64.901 54.4345,63.5676 53.5,62.5C 52.6935,61.2719 51.6935,60.2719 50.5,59.5C 50.5,57.1667 50.5,54.8333 50.5,52.5C 49.5,52.5 48.5,52.5 47.5,52.5C 47.5,52.1667 47.5,51.8333 47.5,51.5C 45.1505,49.3686 42.4838,49.0353 39.5,50.5C 38.7025,50.0431 38.3691,49.3764 38.5,48.5C 39.6118,46.4006 40.2785,44.0673 40.5,41.5C 44.0351,41.8684 47.0351,40.8684 49.5,38.5C 49.9174,35.8411 50.9174,33.5078 52.5,31.5C 56.7464,32.2394 59.413,30.5727 60.5,26.5C 61.29,25.3915 61.79,24.0581 62,22.5C 65.8133,20.6044 66.3133,18.2711 63.5,15.5C 63.5,15.1667 63.5,14.8333 63.5,14.5C 64.2022,13.8843 65.2022,13.8843 66.5,14.5 Z" id="svg_14" opacity="0"/></g><g id="svg_15"><path style="opacity:1" fill="#70143d" d="M 15.5,23.5 C 13.5,23.5 11.5,23.5 9.5,23.5C 9.5,25.1667 9.5,26.8333 9.5,28.5C 8.53862,26.7354 8.20528,24.7354 8.5,22.5C 11.0593,22.1984 13.3926,22.5318 15.5,23.5 Z" id="svg_16"/></g><g id="svg_17"><path style="opacity:1" fill="#cb0654" d="M 15.5,23.5 C 15.5,25.5 15.5,27.5 15.5,29.5C 13.5,29.5 11.5,29.5 9.5,29.5C 9.5,29.1667 9.5,28.8333 9.5,28.5C 9.5,26.8333 9.5,25.1667 9.5,23.5C 11.5,23.5 13.5,23.5 15.5,23.5 Z" id="svg_18"/></g><g id="svg_19"><path style="opacity:1" fill="#d70257" d="M 58.5,27.5 C 58.3893,28.1174 58.056,28.6174 57.5,29C 54.854,29.4974 52.1873,29.6641 49.5,29.5C 49.5,29.1667 49.5,28.8333 49.5,28.5C 49.5,27.5 49.5,26.5 49.5,25.5C 51.7925,25.2436 53.9592,25.5769 56,26.5C 57.9412,22.4463 58.7746,22.7797 58.5,27.5 Z" id="svg_20"/></g><g id="svg_21"><path style="opacity:1" fill="#45182c" d="M 15.5,23.5 C 17.1765,24.1834 17.8432,25.5168 17.5,27.5C 20.8291,27.2153 23.8291,27.8819 26.5,29.5C 22.5874,29.1868 18.9207,29.8534 15.5,31.5C 13.5,30.8333 11.5,30.1667 9.5,29.5C 11.5,29.5 13.5,29.5 15.5,29.5C 15.5,27.5 15.5,25.5 15.5,23.5 Z" id="svg_22"/></g><g id="svg_23"><path style="opacity:1" fill="#4d152c" d="M 47.5,27.5 C 48.1667,27.8333 48.8333,28.1667 49.5,28.5C 49.5,28.8333 49.5,29.1667 49.5,29.5C 50.5,30.1667 51.5,30.8333 52.5,31.5C 50.9174,33.5078 49.9174,35.8411 49.5,38.5C 49.8897,35.5342 49.223,32.8676 47.5,30.5C 43.9009,29.0348 40.5676,29.3682 37.5,31.5C 37.4142,30.5041 37.7476,29.6708 38.5,29C 41.6946,28.8195 44.6946,28.3195 47.5,27.5 Z" id="svg_24"/></g><g id="svg_25"><path style="opacity:1" fill="#d80848" d="M 26.5,29.5 C 26.3284,30.4916 26.6618,31.1583 27.5,31.5C 27.0535,34.0101 27.7202,36.0101 29.5,37.5C 29.5,38.1667 29.8333,38.5 30.5,38.5C 31.9464,39.6129 33.6131,39.7796 35.5,39C 37.1134,36.7724 37.78,34.2724 37.5,31.5C 40.5676,29.3682 43.9009,29.0348 47.5,30.5C 49.223,32.8676 49.8897,35.5342 49.5,38.5C 47.0351,40.8684 44.0351,41.8684 40.5,41.5C 40.2785,44.0673 39.6118,46.4006 38.5,48.5C 37.8333,49.1667 37.1667,49.8333 36.5,50.5C 36.6399,48.8762 35.9733,47.7096 34.5,47C 35.3079,45.2942 36.6412,44.4609 38.5,44.5C 38.5,43.5 38.5,42.5 38.5,41.5C 35.6748,41.1616 33.5082,42.1616 32,44.5C 31.7811,43.062 31.2811,41.7287 30.5,40.5C 30.1667,40.6667 29.8333,40.8333 29.5,41C 29.6472,42.9742 29.9805,44.9742 30.5,47C 29.0267,47.7096 28.3601,48.8762 28.5,50.5C 30.8333,50.5 33.1667,50.5 35.5,50.5C 35.1667,51.1667 34.8333,51.8333 34.5,52.5C 32.0971,52.552 29.7638,52.2186 27.5,51.5C 27.7678,49.901 27.4345,48.5676 26.5,47.5C 25.8333,46.5 25.1667,45.5 24.5,44.5C 24.1667,43.8333 23.8333,43.1667 23.5,42.5C 20.6393,41.6602 17.9727,40.3268 15.5,38.5C 15.5,36.1667 15.5,33.8333 15.5,31.5C 18.9207,29.8534 22.5874,29.1868 26.5,29.5 Z" id="svg_26"/></g><g id="svg_27"><path style="opacity:1" fill="#681333" d="M 27.5,31.5 C 27.8333,31.5 28.1667,31.5 28.5,31.5C 28.8333,33.5 29.1667,35.5 29.5,37.5C 27.7202,36.0101 27.0535,34.0101 27.5,31.5 Z" id="svg_28"/></g><g id="svg_29"><path style="opacity:1" fill="#6f1131" d="M 37.5,31.5 C 37.78,34.2724 37.1134,36.7724 35.5,39C 33.6131,39.7796 31.9464,39.6129 30.5,38.5C 32.1439,38.7135 33.6439,38.3802 35,37.5C 35.2401,35.1484 36.0735,33.1484 37.5,31.5 Z" id="svg_30"/></g><g id="svg_31"><path style="opacity:1" fill="#701230" d="M 15.5,38.5 C 17.9727,40.3268 20.6393,41.6602 23.5,42.5C 19.7396,43.2264 17.073,41.8931 15.5,38.5 Z" id="svg_32"/></g><g id="svg_33"><path style="opacity:1" fill="#f3073e" d="M 36.5,50.5 C 36.1667,50.5 35.8333,50.5 35.5,50.5C 33.1667,50.5 30.8333,50.5 28.5,50.5C 28.3601,48.8762 29.0267,47.7096 30.5,47C 29.9805,44.9742 29.6472,42.9742 29.5,41C 29.8333,40.8333 30.1667,40.6667 30.5,40.5C 31.2811,41.7287 31.7811,43.062 32,44.5C 33.5082,42.1616 35.6748,41.1616 38.5,41.5C 38.5,42.5 38.5,43.5 38.5,44.5C 36.6412,44.4609 35.3079,45.2942 34.5,47C 35.9733,47.7096 36.6399,48.8762 36.5,50.5 Z" id="svg_34"/></g><g id="svg_37"><path style="opacity:1" fill="#711a23" d="M 26.5,47.5 C 27.4345,48.5676 27.7678,49.901 27.5,51.5C 27.5,52.1667 27.5,52.8333 27.5,53.5C 24.5118,51.727 21.1785,51.0604 17.5,51.5C 17.8417,50.6618 18.5084,50.3284 19.5,50.5C 21.8333,50.5 24.1667,50.5 26.5,50.5C 26.5,49.5 26.5,48.5 26.5,47.5 Z" id="svg_38"/></g><g id="svg_39"><path style="opacity:1" fill="#6a2523" d="M 38.5,48.5 C 38.3691,49.3764 38.7025,50.0431 39.5,50.5C 42.4838,49.0353 45.1505,49.3686 47.5,51.5C 44.4816,51.3354 41.4816,51.502 38.5,52C 37.5939,53.6995 37.2606,55.5328 37.5,57.5C 37.3915,59.5138 38.0582,61.1805 39.5,62.5C 38.5041,62.5858 37.6708,62.2524 37,61.5C 37.0704,58.008 36.2371,55.008 34.5,52.5C 34.8333,51.8333 35.1667,51.1667 35.5,50.5C 35.8333,50.5 36.1667,50.5 36.5,50.5C 37.1667,49.8333 37.8333,49.1667 38.5,48.5 Z" id="svg_40"/></g><g id="svg_41"><path style="opacity:1" fill="#ce2f3b" d="M 17.5,51.5 C 21.1785,51.0604 24.5118,51.727 27.5,53.5C 27.5,55.8333 27.5,58.1667 27.5,60.5C 27.1667,60.5 26.8333,60.5 26.5,60.5C 27.1446,57.4532 26.1446,55.2865 23.5,54C 23.8333,53.6667 24.1667,53.3333 24.5,53C 22.1902,52.5034 19.8568,52.3367 17.5,52.5C 17.3713,54.2161 17.038,55.8828 16.5,57.5C 16.1667,57.5 15.8333,57.5 15.5,57.5C 15.0535,54.9899 15.7202,52.9899 17.5,51.5 Z" id="svg_42"/></g><g id="svg_43"><path style="opacity:1" fill="#42221a" d="M 27.5,51.5 C 29.7638,52.2186 32.0971,52.552 34.5,52.5C 33.0028,53.3058 31.3361,53.9724 29.5,54.5C 28.8313,56.6309 28.1646,58.6309 27.5,60.5C 27.5,58.1667 27.5,55.8333 27.5,53.5C 27.5,52.8333 27.5,52.1667 27.5,51.5 Z" id="svg_44"/></g><g id="svg_45"><path style="opacity:1" fill="#55211e" d="M 47.5,52.5 C 48.5,52.5 49.5,52.5 50.5,52.5C 50.5,54.8333 50.5,57.1667 50.5,59.5C 49.8333,59.5 49.5,59.1667 49.5,58.5C 49.7475,56.1417 49.0808,54.1417 47.5,52.5 Z" id="svg_46"/></g><g id="svg_47"><path style="opacity:1" fill="#eb3638" d="M 47.5,51.5 C 47.5,51.8333 47.5,52.1667 47.5,52.5C 49.0808,54.1417 49.7475,56.1417 49.5,58.5C 48.2652,58.2786 47.2652,57.6119 46.5,56.5C 45.7836,57.311 44.9503,57.9777 44,58.5C 41.8789,58.4433 39.7122,58.11 37.5,57.5C 37.2606,55.5328 37.5939,53.6995 38.5,52C 41.4816,51.502 44.4816,51.3354 47.5,51.5 Z" id="svg_48"/></g><g id="svg_49"><path style="opacity:1" fill="#f24834" d="M 26.5,60.5 C 26.1583,61.3382 25.4916,61.6716 24.5,61.5C 20.731,62.0398 18.0643,60.7065 16.5,57.5C 17.038,55.8828 17.3713,54.2161 17.5,52.5C 19.8568,52.3367 22.1902,52.5034 24.5,53C 24.1667,53.3333 23.8333,53.6667 23.5,54C 26.1446,55.2865 27.1446,57.4532 26.5,60.5 Z" id="svg_50"/></g><g id="svg_51"><path style="opacity:1" fill="#c35637" d="M 15.5,57.5 C 15.8333,57.5 16.1667,57.5 16.5,57.5C 18.0643,60.7065 20.731,62.0398 24.5,61.5C 23.0821,63.3079 21.0821,63.9746 18.5,63.5C 18.0269,62.0937 17.0269,61.427 15.5,61.5C 15.5,60.1667 15.5,58.8333 15.5,57.5 Z" id="svg_52"/></g><g id="svg_53"><path style="opacity:1" fill="#e4653b" d="M 49.5,58.5 C 49.5,59.1667 49.8333,59.5 50.5,59.5C 51.6935,60.2719 52.6935,61.2719 53.5,62.5C 53.634,64.2915 53.3007,65.9582 52.5,67.5C 50.8333,67.5 49.1667,67.5 47.5,67.5C 47.5,66.1667 47.5,64.8333 47.5,63.5C 44.6146,63.8064 41.9479,63.4731 39.5,62.5C 38.0582,61.1805 37.3915,59.5138 37.5,57.5C 39.7122,58.11 41.8789,58.4433 44,58.5C 44.9503,57.9777 45.7836,57.311 46.5,56.5C 47.2652,57.6119 48.2652,58.2786 49.5,58.5 Z" id="svg_54"/></g><g id="svg_55"><path style="opacity:1" fill="#482f24" d="M 15.5,61.5 C 17.0269,61.427 18.0269,62.0937 18.5,63.5C 17.5448,65.7457 16.8782,68.079 16.5,70.5C 14.2646,70.7947 12.2646,70.4614 10.5,69.5C 12.4147,69.7845 14.0813,69.4511 15.5,68.5C 15.5,66.8333 15.5,65.1667 15.5,63.5C 13.8333,63.5 12.1667,63.5 10.5,63.5C 10.1667,63.5 9.83333,63.5 9.5,63.5C 10.9179,61.6921 12.9179,61.0254 15.5,61.5 Z" id="svg_56"/></g><g id="svg_57"><path style="opacity:1" fill="#ee7f3c" d="M 10.5,63.5 C 12.1667,63.5 13.8333,63.5 15.5,63.5C 15.5,65.1667 15.5,66.8333 15.5,68.5C 13.8333,68.5 12.1667,68.5 10.5,68.5C 10.5,66.8333 10.5,65.1667 10.5,63.5 Z" id="svg_58"/></g><g id="svg_59"><path style="opacity:1" fill="#b87546" d="M 9.5,63.5 C 9.83333,63.5 10.1667,63.5 10.5,63.5C 10.5,65.1667 10.5,66.8333 10.5,68.5C 12.1667,68.5 13.8333,68.5 15.5,68.5C 14.0813,69.4511 12.4147,69.7845 10.5,69.5C 9.05322,68.8658 8.38655,67.6991 8.5,66C 8.52804,64.9302 8.86137,64.0968 9.5,63.5 Z" id="svg_60"/></g><g id="svg_61"><path style="opacity:1" fill="#613a24" d="M 53.5,62.5 C 54.4345,63.5676 54.7678,64.901 54.5,66.5C 56.4147,66.2155 58.0813,66.5489 59.5,67.5C 57.1417,67.2525 55.1417,67.9192 53.5,69.5C 53.6716,68.5084 53.3382,67.8417 52.5,67.5C 53.3007,65.9582 53.634,64.2915 53.5,62.5 Z" id="svg_62"/></g><g id="svg_63"><path style="opacity:1" fill="#d19543" d="M 59.5,67.5 C 59.8333,68.1667 60.1667,68.8333 60.5,69.5C 61.1667,73.5 59.5,75.1667 55.5,74.5C 53.7868,73.3646 53.1201,71.698 53.5,69.5C 55.1417,67.9192 57.1417,67.2525 59.5,67.5 Z" id="svg_64"/></g><g id="svg_65"><path style="opacity:1" fill="#59451f" d="M 60.5,69.5 C 62.5,74.8333 60.8333,76.5 55.5,74.5C 59.5,75.1667 61.1667,73.5 60.5,69.5 Z" id="svg_66"/></g></g></svg>