<svg width="145" height="44" viewBox="0 0 145 44" fill="none" xmlns="http://www.w3.org/2000/svg">
<g clip-path="url(#clip0)">
<path fill-rule="evenodd" clip-rule="evenodd" d="M48.317 25.5534C48.317 28.1069 50.3811 30.1769 52.9273 30.1769C55.4735 30.1769 57.5378 28.1069 57.5378 25.5534C57.5378 22.9999 55.4735 20.9299 52.9273 20.9299C50.3811 20.9299 48.317 22.9999 48.317 25.5534ZM44.0868 25.5534C44.0868 20.6569 48.0448 16.6874 52.9273 16.6874C57.8098 16.6874 61.768 20.6569 61.768 25.5534C61.768 30.4499 57.8098 34.4194 52.9273 34.4194C48.0448 34.4194 44.0868 30.4499 44.0868 25.5534ZM33.3093 20.4455C35.2022 20.4455 37.0477 21.7236 37.5368 23.7112H29.0817C29.6766 21.6071 31.4163 20.4455 33.3093 20.4455ZM33.3093 30.6613C31.4163 30.6613 29.6052 29.4299 29.0815 27.3952H33.3093H37.537H41.9561C42.2329 26.0821 42.2321 24.6666 41.8293 23.1974C40.8819 19.7423 37.8929 17.1501 34.3426 16.7464C28.6637 16.1007 23.9056 20.8566 24.5226 26.5471C24.9704 30.6756 28.3249 33.9856 32.4473 34.3783C35.2683 34.6468 37.8423 33.5809 39.6292 31.7404C38.6172 30.2101 36.6678 29.63 34.9778 30.3365C34.5053 30.5339 33.9516 30.6613 33.3093 30.6613ZM95.0862 20.4455C96.9791 20.4455 98.8247 21.7236 99.3138 23.7112H90.8587C91.4536 21.6071 93.1933 20.4455 95.0862 20.4455ZM95.0862 30.6613C93.1931 30.6613 91.3822 29.4299 90.8585 27.3952H95.0862H99.314H103.733C104.01 26.0821 104.009 24.6666 103.606 23.1974C102.659 19.7423 99.6701 17.1501 96.1196 16.7464C90.4406 16.1007 85.6828 20.8566 86.2996 26.5471C86.7471 30.6756 90.1019 33.9856 94.2242 34.3783C97.0453 34.6468 99.6191 33.5809 101.406 31.7404C100.394 30.2101 98.4448 29.63 96.7547 30.3365C96.2822 30.5339 95.7283 30.6613 95.0862 30.6613ZM21.1511 9.44398C18.8246 9.44398 16.921 11.5426 16.921 14.1076V27.5195C14.0549 23.2032 10.27 17.5112 7.33382 13.1227C5.73187 10.7283 2.89616 9.44436 0.00110693 9.44417L0 9.44398V9.96764V34.4191C2.3266 34.4191 4.2303 32.3203 4.2303 29.7554V16.3438C7.15457 20.7479 11.0086 26.5445 13.8173 30.7404C15.42 33.1346 18.2558 34.4191 21.1511 34.4191V33.8954V9.44398ZM84.1299 16.6834C84.13 16.6848 84.1301 16.6861 84.1301 16.6874V29.7558C84.1301 32.3206 82.2264 34.4194 79.8997 34.4194V16.6874C79.8997 14.1339 77.8354 12.0639 75.2894 12.0639C72.7432 12.0639 70.6791 14.1339 70.6791 16.6874H72.1126C74.4397 16.6874 76.3262 18.5795 76.3262 20.9133V20.9299H70.6791V29.7558C70.6791 32.3206 68.7754 34.4194 66.4489 34.4194V20.9299H65.0153C62.6882 20.9299 60.8017 19.038 60.8017 16.7041V16.6874H66.4489V16.6279L66.4503 16.6278C66.4826 11.7589 70.4269 7.82164 75.2894 7.82164C80.0939 7.82164 84.0001 11.6657 84.1242 16.4538C84.1278 16.5253 84.1297 16.6005 84.1297 16.6791C84.1297 16.6805 84.1298 16.682 84.1299 16.6834Z" fill="#090909"/>
<path fill-rule="evenodd" clip-rule="evenodd" d="M133.272 40.9657C133.272 39.6916 134.302 38.6587 135.573 38.6587C136.843 38.6587 137.873 39.6916 137.873 40.9657C137.873 42.24 136.843 43.2729 135.573 43.2729C134.302 43.2729 133.272 42.24 133.272 40.9657ZM105.665 37.5054C105.665 36.2312 106.695 35.1982 107.966 35.1982C109.236 35.1982 110.266 36.2312 110.266 37.5054C110.266 38.7795 109.236 39.8124 107.966 39.8124C106.695 39.8124 105.665 38.7795 105.665 37.5054ZM142.216 5.211V5.19205H142.103V5.17311H141.99V5.15416H141.914V5.13522H141.838V5.11627H141.763V5.09732H141.725V5.07838H141.668V5.05943H141.612V5.04049H141.574V5.02154H141.517V5.0026H141.479V4.98365H141.442V4.96471H141.404V4.94576H141.366V4.92682H141.328V4.90787H141.309V4.88892H141.272V4.86998H141.253V4.85103H141.215V4.83208H141.177V4.81314H141.158V4.79419H141.139V4.77525H141.102V4.7563H141.083V4.73736H141.064V4.71841H141.026V4.69947H141.007V4.68052H140.988V4.66158H140.969V4.64263H140.951V4.62368H140.913V4.60474H140.894V4.58579H140.875V4.56685H140.856V4.5479H140.837V4.52896H140.818V4.51001H140.799V4.49107H140.78V4.47212H140.762V4.45317H140.743V4.41528H140.724V4.39634H140.705V4.37739H140.686V4.35844H140.667V4.3395H140.648V4.30161H140.629V4.28266H140.61V4.26372H140.592V4.22583H140.573V4.20688H140.554V4.16899H140.535V4.15004H140.516V4.11215H140.497V4.07426H140.478V4.05532H140.459V4.01743H140.44V3.97953H140.422V3.94164H140.403V3.90375H140.384V3.86586H140.365V3.82797H140.346V3.79008H140.327V3.73324H140.308V3.6764H140.289V3.61956H140.27V3.56273H140.252V3.48695H140.233V3.41116H140.214V3.33538H140.195V3.20276H140.176V2.99436H140.157V2.78596H140.176V2.5965H140.195V2.46388H140.214V2.36916H140.233V2.29337H140.252V2.23653H140.27V2.16075H140.289V2.12286H140.308V2.06602H140.327V2.00919H140.346V1.97129H140.365V1.9334H140.384V1.89551H140.403V1.85762H140.422V1.81973H140.44V1.78184H140.459V1.74395H140.478V1.70606H140.497V1.68711H140.516V1.64922H140.535V1.61133H140.554V1.59238H140.573V1.57344H140.592V1.53555H140.61V1.5166H140.629V1.49765H140.648V1.45976H140.667V1.44082H140.686V1.42187H140.705V1.38398H140.724V1.36504H140.743V1.34609H140.762V1.32714H140.78V1.3082H140.799V1.28925H140.818V1.27031H140.837V1.25136H140.856V1.23242H140.875V1.21347H140.894V1.19453H140.913V1.17558H140.932V1.15664H140.951V1.13769H140.988V1.11874H141.007V1.0998H141.026V1.08085H141.045V1.0619H141.083V1.04296H141.102V1.02401H141.121V1.00507H141.158V0.986122H141.177V0.967178H141.215V0.948231H141.234V0.929287H141.272V0.910339H141.309V0.891396H141.328V0.872448H141.366V0.853504H141.404V0.834557H141.442V0.815613H141.479V0.796665H141.517V0.777721H141.555V0.758774H141.612V0.73983H141.649V0.720886H141.706V0.701939H141.763V0.682995H141.82V0.664047H141.895V0.645103H141.971V0.626156H142.084V0.607212H142.197V0.588264H142.745V0.607212H142.877V0.626156H142.972V0.645103H143.047V0.664047H143.123V0.682995H143.18V0.701939H143.236V0.720886H143.293V0.73983H143.35V0.758774H143.388V0.777721H143.425V0.796665H143.463V0.815613H143.501V0.834557H143.539V0.853504H143.576V0.872448H143.614V0.891396H143.652V0.910339H143.671V0.929287H143.709V0.948231H143.746V0.967178H143.765V0.986122H143.803V1.00507H143.822V1.02401H143.841V1.04296H143.879V1.0619H143.898V1.08085H143.916V1.0998H143.954V1.11874H143.973V1.13769H143.992V1.15664H144.011V1.17558H144.03V1.19453H144.049V1.21347H144.068V1.23242H144.086V1.25136H144.105V1.27031H144.124V1.28925H144.143V1.3082H144.162V1.32714H144.181V1.34609H144.2V1.36504H144.219V1.38398H144.238V1.40293H144.257V1.42187H144.275V1.45976H144.294V1.47871H144.313V1.49765H144.332V1.53555H144.351V1.55449H144.37V1.57344H144.389V1.61133H144.408V1.64922H144.427V1.66817H144.445V1.70606H144.464V1.74395H144.483V1.76289H144.502V1.80079H144.521V1.83868H144.54V1.87657H144.559V1.91446H144.578V1.95235H144.597V1.99024H144.615V2.04708H144.634V2.10392H144.653V2.16075H144.672V2.19864H144.691V2.27443H144.71V2.35021H144.729V2.42599H144.748V2.55861H144.767V3.24065H144.748V3.37327H144.729V3.44905H144.71V3.52484H144.691V3.58167H144.672V3.63851H144.653V3.69535H144.634V3.75219H144.615V3.79008H144.597V3.84691H144.578V3.8848H144.559V3.9227H144.54V3.96059H144.521V3.99848H144.502V4.03637H144.483V4.05532H144.464V4.0932H144.445V4.1311H144.427V4.15004H144.408V4.18793H144.389V4.20688H144.37V4.24477H144.351V4.26372H144.332V4.28266H144.313V4.32055H144.294V4.3395H144.275V4.35844H144.257V4.39634H144.238V4.41528H144.219V4.43423H144.2V4.45317H144.181V4.47212H144.162V4.49107H144.143V4.51001H144.124V4.52896H144.105V4.5479H144.086V4.56685H144.068V4.58579H144.049V4.60474H144.03V4.62368H144.011V4.64263H143.992V4.66158H143.973V4.68052H143.935V4.69947H143.916V4.71841H143.898V4.73736H143.86V4.7563H143.841V4.77525H143.822V4.79419H143.784V4.81314H143.765V4.83208H143.728V4.85103H143.709V4.86998H143.671V4.88892H143.633V4.90787H143.614V4.92682H143.576V4.94576H143.539V4.96471H143.501V4.98365H143.463V5.0026H143.425V5.02154H143.388V5.04049H143.331V5.05943H143.274V5.07838H143.236V5.09732H143.18V5.11627H143.104V5.13522H143.029V5.15416H142.972V5.17311H142.859V5.19205H142.726V5.211H142.216ZM110.266 13.2806C110.266 14.5549 109.236 15.5878 107.966 15.5878C106.695 15.5878 105.665 14.5549 105.665 13.2806C105.665 12.0064 106.695 10.9734 107.966 10.9734C109.236 10.9734 110.266 12.0064 110.266 13.2806ZM113.717 27.6996C111.493 27.6996 109.691 29.5072 109.691 31.7369C109.691 33.9668 111.493 35.7746 113.717 35.7746C115.94 35.7746 117.743 33.9668 117.743 31.7369C117.743 29.5072 115.94 27.6996 113.717 27.6996ZM130.911 34.0442H130.912C132.185 34.0442 133.261 35.0553 133.272 36.3313C133.283 37.6215 132.238 38.6692 130.951 38.6585C129.679 38.6476 128.671 37.5682 128.671 36.2919V36.2906C128.671 36.0056 128.441 35.7747 128.156 35.7747H126.451C124.251 35.7747 122.395 34.0375 122.345 31.8313C122.293 29.5267 124.166 27.6481 126.464 27.7008C128.664 27.7508 130.396 29.6114 130.396 31.8181V33.5283C130.396 33.8132 130.627 34.0442 130.911 34.0442ZM137.853 5.20549C136.581 5.2161 135.573 6.29562 135.573 7.5718V7.57332C135.573 7.85826 135.342 8.0894 135.058 8.0894H133.353C131.152 8.0894 129.297 9.82634 129.247 12.0326C129.195 14.3369 131.068 16.2157 133.366 16.1633C135.566 16.1129 137.298 14.2526 137.298 12.0456V10.3356C137.298 10.0506 137.528 9.8197 137.813 9.8197H137.814C139.087 9.8197 140.163 8.80857 140.174 7.5324C140.185 6.24239 139.139 5.1945 137.853 5.20549ZM124.069 25.3113V25.3925C124.069 27.66 122.205 29.4909 119.93 29.4285C117.737 29.368 116.018 27.5085 116.018 25.3085C116.018 24.0807 115.025 23.0853 113.801 23.0853H113.798C111.597 23.0853 109.742 21.3483 109.692 19.1421C109.64 16.8376 111.513 14.9589 113.811 15.0114C116.011 15.0616 117.743 16.9221 117.743 19.1288V19.1319C117.743 20.3597 118.735 21.355 119.96 21.355H120.044H120.124C121.35 21.355 122.344 20.3582 122.344 19.1288C122.344 16.9221 124.076 15.0616 126.276 15.0114C128.574 14.9589 130.447 16.8376 130.395 19.1421C130.345 21.3483 128.49 23.0853 126.289 23.0853C125.063 23.0853 124.069 24.082 124.069 25.3113Z" fill="url(#paint0_linear)"/>
</g>
<defs>
<linearGradient id="paint0_linear" x1="125.216" y1="43.2729" x2="125.216" y2="0.588264" gradientUnits="userSpaceOnUse">
<stop stop-color="#ECA729"/>
<stop offset="0.217533" stop-color="#E8652E"/>
<stop offset="0.415453" stop-color="#E02B3D"/>
<stop offset="0.655041" stop-color="#D2005A"/>
<stop offset="1" stop-color="#841364"/>
</linearGradient>
<clipPath id="clip0">
<rect width="144.767" height="43" fill="white" transform="translate(0 0.5)"/>
</clipPath>
</defs>
</svg>
