<svg width="32" height="32" viewBox="0 0 32 32" fill="none" xmlns="http://www.w3.org/2000/svg">
<path d="M7.88281 16.0923C7.88281 15.6138 8.05143 15.2059 8.38867 14.8687C8.73047 14.5314 9.13835 14.3628 9.6123 14.3628C10.0908 14.3628 10.4987 14.5314 10.8359 14.8687C11.1777 15.2059 11.3486 15.6138 11.3486 16.0923C11.3486 16.5708 11.1777 16.981 10.8359 17.3228C10.4987 17.66 10.0908 17.8286 9.6123 17.8286C9.13835 17.8286 8.73047 17.66 8.38867 17.3228C8.05143 16.981 7.88281 16.5708 7.88281 16.0923ZM14.791 16.0923C14.791 15.6138 14.9596 15.2059 15.2969 14.8687C15.6387 14.5314 16.0465 14.3628 16.5205 14.3628C16.999 14.3628 17.4069 14.5314 17.7441 14.8687C18.0859 15.2059 18.2568 15.6138 18.2568 16.0923C18.2568 16.5708 18.0859 16.981 17.7441 17.3228C17.4069 17.66 16.999 17.8286 16.5205 17.8286C16.0465 17.8286 15.6387 17.66 15.2969 17.3228C14.9596 16.981 14.791 16.5708 14.791 16.0923ZM21.6992 16.0923C21.6992 15.6138 21.8678 15.2059 22.2051 14.8687C22.5469 14.5314 22.9548 14.3628 23.4287 14.3628C23.9072 14.3628 24.3151 14.5314 24.6523 14.8687C24.9941 15.2059 25.165 15.6138 25.165 16.0923C25.165 16.5708 24.9941 16.981 24.6523 17.3228C24.3151 17.66 23.9072 17.8286 23.4287 17.8286C22.9548 17.8286 22.5469 17.66 22.2051 17.3228C21.8678 16.981 21.6992 16.5708 21.6992 16.0923Z" fill="black" fill-opacity="0.25"/>
</svg>
