<svg
  width="18"
  height="18"
  viewBox="0 0 22 22"
  fill="none"
  xmlns="http://www.w3.org/2000/svg"
>
<path
    d="M8.75 8.75C9.16421 8.75 9.5 9.08579 9.5 9.5L9.5 15.5C9.5 15.9142 9.16421 16.25 8.75 16.25C8.33579 16.25 8 15.9142 8 15.5L8 9.5C8 9.08579 8.33579 8.75 8.75 8.75Z"
    fill="#5C5C5C"
  />
<path
    d="M14 9.5C14 9.08579 13.6642 8.75 13.25 8.75C12.8358 8.75 12.5 9.08579 12.5 9.5L12.5 15.5C12.5 15.9142 12.8358 16.25 13.25 16.25C13.6642 16.25 14 15.9142 14 15.5L14 9.5Z"
    fill="#5C5C5C"
  />
<path
    fill-rule="evenodd"
    clip-rule="evenodd"
    d="M18.5 5.75V19.25C18.5 20.4926 17.4926 21.5 16.25 21.5H5.75C4.50736 21.5 3.5 20.4926 3.5 19.25V5.75H1.25C0.835786 5.75 0.5 5.41421 0.5 5C0.5 4.58579 0.835786 4.25 1.25 4.25H5V2.3C5 1.30589 5.80589 0.5 6.8 0.5H15.2C16.1941 0.5 17 1.30589 17 2.3V4.25H20.75C21.1642 4.25 21.5 4.58579 21.5 5C21.5 5.41421 21.1642 5.75 20.75 5.75H18.5ZM5 19.25V5.75H17V19.25C17 19.6642 16.6642 20 16.25 20H5.75C5.33579 20 5 19.6642 5 19.25ZM15.5 4.25V2.3C15.5 2.13431 15.3657 2 15.2 2H6.8C6.63431 2 6.5 2.13431 6.5 2.3V4.25H15.5Z"
    fill="#5C5C5C"
  />
</svg>
